<svg width="34" height="33" viewBox="0 0 34 33" fill="none" xmlns="http://www.w3.org/2000/svg">
<path d="M1.11418 30.9125C0.723658 31.303 0.723658 31.9362 1.11418 32.3267C1.50471 32.7173 2.13787 32.7173 2.5284 32.3267L1.11418 30.9125ZM33.4487 0.992252C33.4487 0.439969 33.0009 -0.00774656 32.4487 -0.00774816L23.4487 -0.00774871C22.8964 -0.00774769 22.4487 0.439966 22.4487 0.992252C22.4487 1.54454 22.8964 1.99225 23.4487 1.99225L31.4487 1.99225L31.4487 9.99225C31.4487 10.5445 31.8964 10.9923 32.4487 10.9923C33.001 10.9923 33.4487 10.5445 33.4487 9.99225L33.4487 0.992252ZM2.5284 32.3267L33.1558 1.69936L31.7416 0.285146L1.11418 30.9125L2.5284 32.3267Z" fill="white"/>
</svg>
