<svg width="309" height="101" viewBox="0 0 309 101" fill="none" xmlns="http://www.w3.org/2000/svg">
<path d="M51.8457 35.9031C51.6065 32.881 50.4853 30.5237 48.482 28.8313C46.5087 27.1389 43.5038 26.2927 39.4673 26.2927C36.896 26.2927 34.7881 26.61 33.1436 27.2447C31.529 27.8491 30.333 28.6802 29.5556 29.7379C28.7783 30.7957 28.3746 32.0045 28.3447 33.3645C28.2849 34.4827 28.4793 35.4951 28.9278 36.4018C29.4061 37.2782 30.1536 38.0791 31.1702 38.8044C32.1868 39.4995 33.4874 40.1341 35.0721 40.7083C36.6568 41.2825 38.5404 41.7963 40.7231 42.2496L48.2578 43.8816C53.3407 44.9695 57.6911 46.4051 61.3089 48.1881C64.9267 49.9712 67.8868 52.0716 70.189 54.4893C72.4913 56.8768 74.1806 59.5665 75.257 62.5584C76.3633 65.5503 76.9314 68.8142 76.9613 72.3502C76.9314 78.4549 75.4215 83.6227 72.4315 87.8537C69.4416 92.0847 65.1659 95.3033 59.6046 97.5095C54.0732 99.7157 47.4206 100.819 39.6467 100.819C31.6636 100.819 24.697 99.625 18.747 97.2375C12.8269 94.85 8.22236 91.1781 4.93342 86.2218C1.67437 81.2353 0.0298995 74.8585 0 67.0916H23.6804C23.8299 69.9324 24.5325 72.3199 25.7883 74.2541C27.0441 76.1883 28.8082 77.654 31.0805 78.6513C33.3828 79.6486 36.1186 80.1473 39.2879 80.1473C41.949 80.1473 44.1765 79.8148 45.9705 79.15C47.7644 78.4851 49.1249 77.5633 50.0517 76.3847C50.9786 75.2061 51.457 73.8612 51.4869 72.3502C51.457 70.9297 50.9936 69.6907 50.0966 68.6329C49.2295 67.5449 47.7943 66.5779 45.7911 65.7317C43.7878 64.8552 41.0819 64.0393 37.6734 63.2837L28.5241 61.2891C20.3915 59.506 13.978 56.5292 9.28379 52.3587C4.61947 48.1579 2.30226 42.4309 2.33216 35.1778C2.30226 29.2846 3.85703 24.1319 6.99648 19.7195C10.1658 15.277 14.5461 11.8166 20.1373 9.33848C25.7584 6.86032 32.2018 5.62124 39.4673 5.62124C46.8824 5.62124 53.2958 6.87543 58.7076 9.38381C64.1195 11.8922 68.2904 15.4281 71.2206 19.9915C74.1806 24.5247 75.6756 29.8286 75.7055 35.9031H51.8457Z" fill="white" fill-opacity="0.08"/>
<path d="M111.562 6.89054V99.7308H86.8057V6.89054H111.562Z" fill="white" fill-opacity="0.08"/>
<path d="M124.176 99.7308V30.1006H148.933V99.7308H124.176ZM136.555 22.8475C133.206 22.8475 130.336 21.7293 127.944 19.4929C125.552 17.2565 124.356 14.5668 124.356 11.4238C124.356 8.28073 125.552 5.59102 127.944 3.35464C130.336 1.11825 133.206 6.10352e-05 136.555 6.10352e-05C139.933 6.10352e-05 142.804 1.11825 145.166 3.35464C147.558 5.59102 148.754 8.28073 148.754 11.4238C148.754 14.5668 147.558 17.2565 145.166 19.4929C142.804 21.7293 139.933 22.8475 136.555 22.8475Z" fill="white" fill-opacity="0.08"/>
<path d="M194.735 101C187.26 101 180.862 99.5041 175.54 96.5122C170.218 93.49 166.137 89.2893 163.296 83.9098C160.456 78.5002 159.035 72.2293 159.035 65.097C159.035 57.9648 160.456 51.7089 163.296 46.3295C166.137 40.9199 170.218 36.7191 175.54 33.7272C180.862 30.705 187.26 29.194 194.735 29.194C201.493 29.194 207.338 30.433 212.271 32.9112C217.235 35.3591 221.077 38.8346 223.798 43.3376C226.519 47.8104 227.894 53.0689 227.924 59.1132H204.961C204.632 55.4564 203.586 52.676 201.822 50.7721C200.087 48.8379 197.845 47.8708 195.094 47.8708C192.941 47.8708 191.058 48.5054 189.443 49.7747C187.829 51.0138 186.573 52.9027 185.676 55.4413C184.779 57.9496 184.33 61.1078 184.33 64.9157C184.33 68.7236 184.779 71.8968 185.676 74.4354C186.573 76.9438 187.829 78.8326 189.443 80.102C191.058 81.341 192.941 81.9606 195.094 81.9606C196.918 81.9606 198.533 81.5375 199.938 80.6913C201.343 79.8148 202.479 78.5455 203.346 76.8834C204.243 75.191 204.782 73.1359 204.961 70.7182H227.924C227.834 76.8531 226.444 82.2023 223.753 86.7658C221.062 91.299 217.25 94.8047 212.316 97.2828C207.413 99.761 201.552 101 194.735 101Z" fill="white" fill-opacity="0.08"/>
<path d="M260.383 83.2299L260.563 53.492H263.792L280.476 30.1006H308.282L280.297 66.5476H273.3L260.383 83.2299ZM238.138 99.7308V6.89054H262.895V99.7308H238.138ZM280.655 99.7308L264.868 72.1688L281.014 54.3986L309 99.7308H280.655Z" fill="white" fill-opacity="0.08"/>
</svg>
