<svg width="209" height="40" viewBox="0 0 209 40" fill="none" xmlns="http://www.w3.org/2000/svg">
<path d="M97.625 33.75H101.75L107.5 12.375V33.75H112.125V5.50003H105.75L100 26.25L94.25 5.50003H87.75V33.75H91.75V12.375L97.625 33.75ZM131.5 19.75C131.5 14.75 129 12.875 123.875 12.875C120.625 12.875 118.125 13.875 116.625 14.75V18.75C117.875 17.75 120.75 16.75 123.25 16.75C125.625 16.75 126.625 17.625 126.625 19.75V20.875H125.875C118.5 20.875 115.125 23.375 115.125 27.5C115.125 31.625 117.625 34 121.375 34C124.25 34 125.5 33.125 126.375 32.125H126.625C126.625 32.625 126.875 33.375 127 33.75H131.75C131.625 32.125 131.5 30.375 131.5 28.75V19.75ZM126.625 28.875C126 29.75 124.875 30.5 123.125 30.5C121.125 30.5 120.125 29.25 120.125 27.5C120.125 25.125 121.75 24.25 126 24.25H126.75V28.875H126.625ZM139.875 13.25H135.375V39.625H140.25V31.375C141.5 33.25 143.25 34.125 145.375 34.125C150.125 34.125 153.375 30.375 153.375 23.5C153.375 16.625 150.25 12.875 145.625 12.875C143.375 12.875 141.5 13.875 140.125 15.875L139.875 13.25ZM144 30.375C141.5 30.375 140.125 28.25 140.125 23.625C140.125 18.875 141.5 16.75 144.25 16.75C146.875 16.75 148.25 18.875 148.25 23.5C148.25 28.25 146.875 30.375 144 30.375ZM168.5 33.75H174L166.25 22.75L173.125 13.25H168.25L161.375 22.75V13.25H156.5V33.75H161.375V23.75L168.5 33.75ZM190.25 32.375V28.375C188.75 29.375 186.25 30.25 183.875 30.25C180.375 30.25 179 28.625 178.75 25.125H190.375V22.5C190.375 15.375 187.25 12.75 182.375 12.75C176.5 12.75 173.625 17.25 173.625 23.5C173.625 30.625 177.125 34.125 183.25 34.125C186.625 34.125 188.875 33.375 190.25 32.375ZM182.375 16.75C184.75 16.75 185.5 18.75 185.5 21.25V21.625H178.75C178.875 18.375 180.125 16.75 182.375 16.75ZM207.75 17.125V13.25H191.5V17.125H197.25V33.75H202.125V17.125H207.75Z" fill="white"/>
<path d="M58.7514 38.75C69.1264 38.75 77.5014 30.375 77.5014 20C77.5014 9.625 69.1264 1.25 58.7514 1.25C48.3764 1.25 40.0014 9.625 40.0014 20C39.8764 30.375 48.3764 38.75 58.7514 38.75Z" fill="white"/>
<path d="M18.75 38.75C29.1054 38.75 37.5 30.3554 37.5 20C37.5 9.64466 29.1054 1.25 18.75 1.25C8.39466 1.25 0 9.64466 0 20C0 30.3554 8.39466 38.75 18.75 38.75Z" fill="#FC3F1D"/>
<path d="M21.5 11.75H19.625C16.375 11.75 14.75 13.375 14.75 15.875C14.75 18.625 15.875 20 18.25 21.625L20.125 23L14.75 31.375H10.375L15.5 23.75C12.5 21.625 10.875 19.625 10.875 16.125C10.875 11.75 13.875 8.75 19.625 8.75H25.375V31.25H21.625V11.75H21.5Z" fill="white"/>
<path fill-rule="evenodd" clip-rule="evenodd" d="M43.1821 30.5492L49.7497 21.875L48.4997 30.75L55.3747 33.125L63.7497 19.75C63.3747 22.25 62.7497 28 68.2497 29.75C70.9136 30.5607 73.4701 29.6425 75.8346 27.754C76.9052 25.3922 77.5011 22.7672 77.5011 20C77.5011 18.7961 77.3884 17.6192 77.1729 16.4792C74.5217 20.4475 71.9816 23.232 70.6247 22.875C68.2497 22.25 70.3747 14.625 71.7497 9.74997V9.62497L64.1247 6.99997L54.9997 21.875L56.2497 13.75L49.6247 11.5L40.6247 24.375C40.6247 24.375 40.5924 24.5011 40.5527 24.7094C41.0852 26.8247 41.9859 28.7941 43.1821 30.5492Z" fill="#21201F"/>
</svg>
